<svg width="18" height="16" viewBox="0 0 18 16" fill="none" xmlns="http://www.w3.org/2000/svg">
<path d="M4.29197 14.4172H1.41803C1.20901 14.4172 1 14.15 1 13.8829V1.46009C1 1.19294 1.20901 0.925781 1.41803 0.925781H4.29197C4.50099 0.925781 4.71 1.19294 4.71 1.46009V13.8829C4.71 14.15 4.55324 14.4172 4.29197 14.4172Z" stroke="#909FBA" stroke-width="1.5" stroke-miterlimit="10" stroke-linecap="round" stroke-linejoin="round"/>
<path d="M16.4023 7.06247H8.63464C8.36908 7.06247 8.10352 6.83306 8.10352 6.60365V1.3846C8.10352 1.15519 8.36908 0.925781 8.63464 0.925781H16.4687C16.7342 0.925781 16.9998 1.15519 16.9998 1.3846V6.60365C16.9334 6.89041 16.6678 7.06247 16.4023 7.06247Z" stroke="#909FBA" stroke-width="1.5" stroke-miterlimit="10" stroke-linecap="round" stroke-linejoin="round"/>
<path d="M16.4023 14.4172H8.63464C8.36908 14.4172 8.10352 14.1501 8.10352 13.8829V11.0778C8.10352 10.8106 8.36908 10.5435 8.63464 10.5435H16.4687C16.7342 10.5435 16.9998 10.8106 16.9998 11.0778V13.8829C16.9334 14.1501 16.6678 14.4172 16.4023 14.4172Z" stroke="#909FBA" stroke-width="1.5" stroke-miterlimit="10" stroke-linecap="round" stroke-linejoin="round"/>
</svg>
