<svg width="20" height="20" viewBox="0 0 20 20" fill="none" xmlns="http://www.w3.org/2000/svg">
<path d="M10 19C14.9706 19 19 14.9706 19 10C19 5.02944 14.9706 1 10 1C5.02944 1 1 5.02944 1 10C1 14.9706 5.02944 19 10 19Z" stroke="#909FBA" stroke-width="1.5" stroke-miterlimit="10" stroke-linecap="round" stroke-linejoin="round"/>
<path d="M9.9998 15.15C10.4554 15.15 10.8248 14.7806 10.8248 14.325C10.8248 13.8694 10.4554 13.5 9.9998 13.5C9.54417 13.5 9.1748 13.8694 9.1748 14.325C9.1748 14.7806 9.54417 15.15 9.9998 15.15Z" fill="#909FBA"/>
<path d="M9.8502 11.7998C9.6252 11.6498 9.4752 11.3498 9.4752 11.1248C9.4752 9.6998 12.3252 9.4748 12.3252 7.2998C12.3252 6.0248 11.2752 5.0498 9.4752 5.0498C8.1252 5.0498 7.0002 5.6498 6.3252 6.5498" stroke="#909FBA" stroke-width="1.5" stroke-miterlimit="10" stroke-linecap="round" stroke-linejoin="round"/>
</svg>
