<svg width="162" height="33" viewBox="0 0 162 33" fill="none" xmlns="http://www.w3.org/2000/svg">
<path d="M28.5554 21.3509C27.5148 24.9546 25.3181 28.0158 22.4277 30.1471C21.3486 30.9221 20.1924 31.5808 18.9206 32.1233C18.805 32.1233 18.6508 32.1233 18.4967 32.1233L6.47247 32.162V0.116197C8.97752 -5.11413e-05 11.4055 -0.0775502 13.7564 0.154947C16.6083 0.426193 19.3445 1.20118 21.9267 2.98366C22.0808 3.09991 22.2735 3.21616 22.4277 3.33241C26.0118 6.00612 28.3242 9.80357 29.0179 13.9498C29.4032 16.3522 29.2876 18.871 28.5554 21.3509Z" fill="#FFB6B3"/>
<path d="M16.9551 21.9322C20.7225 21.9322 23.7765 18.8614 23.7765 15.0735C23.7765 11.2856 20.7225 8.21484 16.9551 8.21484C13.1877 8.21484 10.1337 11.2856 10.1337 15.0735C10.1337 18.8614 13.1877 21.9322 16.9551 21.9322Z" fill="#FFD5C5"/>
<path d="M4.31424 13.291V32.007V32.162L6.47243 32.0458L19.383 31.2708C20.2309 31.2708 21.0402 29.1396 21.8495 29.0233C22.1193 27.7446 21.7339 25.3421 21.3871 25.2258C21.1944 25.1483 20.6934 24.9546 20.0382 24.6834C19.1518 24.3346 18.0342 23.8696 17.2634 23.5984C16.6468 23.3659 16.1457 22.8234 15.7604 22.1646C15.4906 21.6996 15.2208 21.2346 15.0281 20.7697C14.951 20.5759 14.874 20.4209 14.7969 20.2659C14.7198 20.0722 14.6427 19.8784 14.5656 19.7234C14.1417 18.5997 13.3709 17.8247 12.947 17.4759C12.5231 17.1272 11.8679 17.0497 11.02 16.7785C10.1722 16.5072 10.1722 15.461 10.0566 14.8797C10.0566 14.8022 9.94095 14.686 9.78679 14.6472C9.01601 14.2985 6.70367 14.376 6.70367 14.376C6.62659 14.2985 6.51097 14.221 6.43389 14.1435C5.54749 13.2135 4.81525 13.136 4.31424 13.291Z" fill="#B15EAA"/>
<path d="M32.7176 18.0186C32.6405 21.8548 31.0604 25.3422 28.5553 27.8997C26.5128 29.9534 23.815 31.3871 20.8475 31.8909C20.2309 32.0071 19.5757 32.0459 18.9206 32.0846C18.8049 32.0846 18.6508 32.0846 18.4966 32.0846L6.47243 32.1234H4.35278H4.31424C4.31424 32.1234 4.31424 32.1234 4.35278 32.0846L4.39132 32.0459C4.85379 31.5809 5.66311 30.4959 6.47243 29.4497C6.47243 29.4497 6.47243 29.4497 6.47243 29.4109C7.35883 28.2872 8.28377 27.1635 8.86185 26.776C10.943 25.4197 11.6752 25.226 11.6752 25.226C12.0606 25.1097 12.4075 24.8772 12.6772 24.606C13.3324 23.986 13.7178 23.0948 13.8719 22.6685C13.949 22.436 14.0646 22.2035 14.1803 22.0098C14.2188 21.8935 14.2959 21.816 14.3344 21.6998C14.5656 21.351 14.7969 21.0023 15.0281 20.6923C17.9571 16.8561 22.3891 16.3136 22.3891 16.3136C22.9286 16.2361 23.4682 16.1586 23.9306 16.0811C24.7014 15.9261 25.4337 15.6936 26.0503 15.4999C27.3606 15.0349 28.3241 14.4536 28.9793 13.9886C29.2876 13.7561 29.5188 13.6011 29.673 13.4461C29.8271 13.2911 29.9813 13.1361 30.0969 12.9424C30.4438 12.3611 30.7906 11.8574 31.0989 11.4312C32.1009 13.4074 32.679 15.6548 32.7176 18.0186Z" fill="#6138E0"/>
<path d="M4.31431 13.291C4.31431 13.291 -3.16228 25.0709 4.31431 32.162L6.81935 23.3659L4.31431 13.291Z" fill="#B15EAA"/>
<path d="M156.775 14.7248C156.775 14.3373 156.891 13.9498 157.083 13.6399C157.276 13.2911 157.546 13.0199 157.893 12.8261C158.24 12.6324 158.586 12.5161 158.972 12.5161C159.357 12.5161 159.743 12.6324 160.051 12.8261C160.398 13.0199 160.668 13.2911 160.86 13.6399C161.053 13.9886 161.169 14.3373 161.169 14.7248C161.169 15.1123 161.091 15.4611 160.899 15.8098C160.706 16.1586 160.436 16.4298 160.089 16.6236C159.743 16.8173 159.396 16.9336 158.972 16.9336C158.586 16.9336 158.201 16.8173 157.854 16.6236C157.507 16.4298 157.238 16.1586 157.045 15.8098C156.852 15.4611 156.775 15.1123 156.775 14.7248ZM157.045 14.7248C157.045 15.0736 157.122 15.3836 157.315 15.6936C157.469 16.0036 157.739 16.2361 158.008 16.3911C158.317 16.5461 158.625 16.6623 158.972 16.6623C159.319 16.6623 159.627 16.5848 159.935 16.3911C160.244 16.2361 160.475 15.9648 160.629 15.6936C160.783 15.3836 160.899 15.0736 160.899 14.7248C160.899 14.3761 160.822 14.0661 160.668 13.7561C160.513 13.4461 160.282 13.2136 159.974 13.0586C159.666 12.8649 159.357 12.7874 159.01 12.7874C158.663 12.7874 158.355 12.8649 158.047 13.0586C157.739 13.2136 157.507 13.4849 157.353 13.7561C157.122 14.0661 157.045 14.3761 157.045 14.7248ZM159.743 14.1823C159.743 14.3373 159.704 14.4536 159.627 14.6086C159.55 14.7248 159.434 14.8023 159.319 14.8798L160.012 16.0423H159.666L159.049 14.9961H158.548V16.0423H158.24V13.4849H158.856C159.126 13.4849 159.357 13.5624 159.511 13.6786C159.666 13.7173 159.743 13.9111 159.743 14.1823ZM158.548 14.7248H158.856C159.049 14.7248 159.165 14.6861 159.28 14.5698C159.396 14.4923 159.434 14.3373 159.434 14.1823C159.434 13.8336 159.242 13.6786 158.856 13.6786H158.548V14.7248Z" fill="#909FBA"/>
<path d="M86.9807 13.02L83.3966 20.8474L79.8124 13.02H76.2283L82.356 26.8148H84.36L90.5648 13.02H86.9807Z" fill="#283444"/>
<path d="M41.8129 26.8149V4.92139H46.3991C48.5958 4.92139 50.3301 5.15388 51.6019 5.58013C52.9507 6.00637 54.2225 6.74261 55.3016 7.7501C57.5369 9.80382 58.6931 12.5163 58.6931 15.8875C58.6931 19.2587 57.5369 21.9712 55.186 24.0636C53.9913 25.1099 52.758 25.8461 51.4862 26.2336C50.2915 26.6599 48.5573 26.8536 46.3605 26.8536H41.8129V26.8149ZM45.0888 23.7149H46.5532C48.0177 23.7149 49.251 23.5599 50.253 23.2499C51.2165 22.9012 52.1029 22.3974 52.9122 21.6612C54.5308 20.1887 55.3402 18.2512 55.3402 15.8487C55.3402 13.4463 54.5308 11.5088 52.9507 9.99757C51.5248 8.68009 49.4051 7.9826 46.5918 7.9826H45.1273V23.7149H45.0888Z" fill="#283444"/>
<path d="M74.6867 20.6537H64.8207C64.8978 21.7774 65.2832 22.7074 65.9383 23.3661C66.5935 24.0249 67.4028 24.3736 68.4434 24.3736C69.2527 24.3736 69.8693 24.1799 70.4089 23.7924C70.9099 23.4049 71.488 22.7074 72.1431 21.6999L74.8409 23.2111C74.4169 23.9086 73.993 24.5286 73.5305 25.0323C73.0681 25.5361 72.5671 25.9623 72.0661 26.2723C71.5265 26.5823 70.987 26.8536 70.3703 26.9698C69.7537 27.1248 69.0985 27.2023 68.3663 27.2023C66.3237 27.2023 64.6665 26.5436 63.4333 25.2261C62.2 23.9086 61.5834 22.1261 61.5834 19.9174C61.5834 17.7474 62.2 15.965 63.3948 14.6087C64.5895 13.2912 66.2081 12.5938 68.2121 12.5938C70.2162 12.5938 71.8348 13.2525 73.0295 14.5312C74.1857 15.81 74.7638 17.5924 74.7638 19.8787L74.6867 20.6537ZM71.4494 18.0574C71.0255 16.3525 69.9464 15.5 68.2507 15.5C67.8653 15.5 67.5184 15.5775 67.1716 15.6937C66.8247 15.81 66.5164 15.965 66.2467 16.1975C65.9769 16.43 65.7456 16.7012 65.5529 17.0112C65.3603 17.3212 65.2061 17.6699 65.0905 18.0574H71.4494Z" fill="#283444"/>
<path d="M101.857 13.02H105.056V26.8535H101.857V25.4198C100.546 26.6598 99.159 27.2798 97.6175 27.2798C95.7291 27.2798 94.149 26.5823 92.9157 25.226C91.6825 23.8311 91.0658 22.0486 91.0658 19.9561C91.0658 17.9024 91.6825 16.1587 92.9157 14.7637C94.149 13.3687 95.6905 12.71 97.5404 12.71C99.1591 12.71 100.585 13.3687 101.857 14.6862V13.02ZM94.3031 19.8786C94.3031 21.1961 94.65 22.2811 95.3437 23.1336C96.0759 23.9861 96.9623 24.4123 98.08 24.4123C99.2747 24.4123 100.2 24.0248 100.932 23.2111C101.664 22.3586 102.011 21.3123 102.011 19.9949C102.011 18.7161 101.664 17.6311 100.932 16.7787C100.2 15.9649 99.2747 15.5387 98.1185 15.5387C97.0394 15.5387 96.1145 15.9649 95.3822 16.7787C94.65 17.5924 94.3031 18.6386 94.3031 19.8786Z" fill="#283444"/>
<path d="M109.025 13.0198H112.224V14.2986C113.341 13.1748 114.575 12.6323 115.962 12.6323C117.581 12.6323 118.814 13.1361 119.7 14.1436C120.471 14.996 120.857 16.391 120.857 18.3673V26.8534H117.658V19.1035C117.658 17.7473 117.465 16.8173 117.08 16.2748C116.694 15.7323 116.039 15.461 115.076 15.461C114.035 15.461 113.264 15.8098 112.84 16.5073C112.417 17.2048 112.185 18.406 112.185 20.111V26.7759H108.987V13.0198H109.025Z" fill="#283444"/>
<path d="M129.451 23.8311H137.621V26.8536H123.169L132.072 16.0037H125.057V13.02H138.353L129.451 23.8311Z" fill="#283444"/>
<path d="M150.724 13.02H153.923V26.8535H150.724V25.4198C149.414 26.6598 148.027 27.2798 146.485 27.2798C144.597 27.2798 143.017 26.5823 141.783 25.226C140.55 23.8311 139.934 22.0486 139.934 19.9561C139.934 17.9024 140.55 16.1587 141.783 14.7637C143.017 13.3687 144.558 12.71 146.408 12.71C148.027 12.71 149.453 13.3687 150.724 14.6862V13.02ZM143.209 19.8786C143.209 21.1961 143.556 22.2811 144.25 23.1336C144.982 23.9861 145.869 24.4123 146.986 24.4123C148.181 24.4123 149.106 24.0248 149.838 23.2111C150.57 22.3586 150.917 21.3123 150.917 19.9949C150.917 18.7161 150.57 17.6311 149.838 16.7787C149.106 15.9649 148.181 15.5387 147.025 15.5387C145.946 15.5387 145.021 15.9649 144.288 16.7787C143.556 17.5924 143.209 18.6386 143.209 19.8786Z" fill="#283444"/>
</svg>
