<svg width="20" height="20" viewBox="0 0 20 20" fill="none" xmlns="http://www.w3.org/2000/svg">
<path d="M6.89844 13.2432L13.0917 7.0127" stroke="#909FBA" stroke-width="1.5" stroke-miterlimit="10" stroke-linecap="round" stroke-linejoin="round"/>
<path fill-rule="evenodd" clip-rule="evenodd" d="M7.55698 9.02158C8.28952 9.02158 8.88887 8.41863 8.88887 7.68169C8.88887 6.94475 8.28952 6.3418 7.55698 6.3418C6.82445 6.3418 6.2251 6.94475 6.2251 7.68169C6.2251 8.41863 6.82445 9.02158 7.55698 9.02158Z" stroke="#909FBA" stroke-width="1.5" stroke-miterlimit="10" stroke-linecap="round" stroke-linejoin="round"/>
<path fill-rule="evenodd" clip-rule="evenodd" d="M12.557 14.0518C13.2895 14.0518 13.8889 13.4489 13.8889 12.712C13.8889 11.975 13.2895 11.3721 12.557 11.3721C11.8244 11.3721 11.2251 11.975 11.2251 12.712C11.2251 13.4489 11.8244 14.0518 12.557 14.0518Z" stroke="#909FBA" stroke-width="1.5" stroke-miterlimit="10" stroke-linecap="round" stroke-linejoin="round"/>
<path d="M18.3706 9.10847C17.7696 8.65507 17.1687 8.27723 16.5678 7.82383C16.2673 7.59712 16.1922 7.37042 16.2673 7.06815C16.4176 6.23691 16.5678 5.40567 16.6429 4.72556C16.6429 3.81876 16.1171 3.36535 15.441 3.44092C14.6899 3.51649 13.8636 3.66762 13.1125 3.81876C12.7369 3.89432 12.5115 3.74319 12.2862 3.44092C11.9106 2.83638 11.4599 2.23184 11.0092 1.6273C10.4834 0.871628 9.582 0.871628 9.05619 1.6273C8.60549 2.23184 8.1548 2.76081 7.77922 3.36535C7.55387 3.74319 7.32852 3.89432 6.87783 3.81876C6.20178 3.66762 5.45062 3.51649 4.77458 3.44092C3.72295 3.28978 3.12203 3.81876 3.34737 4.95227C3.49761 5.63237 3.57272 6.38805 3.72295 7.06815C3.79807 7.44599 3.72295 7.67269 3.42249 7.82383C2.82156 8.27723 2.22063 8.65507 1.61971 9.10847C0.793431 9.71301 0.793431 10.5443 1.61971 11.1488C2.22063 11.6022 2.82156 11.98 3.34737 12.4334C3.64784 12.6601 3.79807 12.8868 3.72295 13.2647C3.57272 14.0204 3.42249 14.776 3.34737 15.6073C3.27226 16.4385 3.87319 16.9675 4.62435 16.8163C5.37551 16.6652 6.12666 16.5896 6.95294 16.4385C7.32852 16.3629 7.55387 16.4385 7.77922 16.7408C8.22991 17.3453 8.60549 17.9499 9.05619 18.5544C9.65712 19.3856 10.4834 19.3856 11.0843 18.5544C11.535 17.9499 11.9857 17.3453 12.3613 16.7408C12.5115 16.4385 12.7369 16.3629 13.1125 16.4385C13.7885 16.5896 14.5397 16.6652 15.2157 16.8163C16.3424 17.043 16.9434 16.4385 16.718 15.305C16.5678 14.6249 16.4927 13.8692 16.3424 13.1891C16.2673 12.8113 16.3424 12.6601 16.6429 12.4334C17.2438 11.98 17.8448 11.6022 18.4457 11.1488C19.1968 10.5443 19.1968 9.71301 18.3706 9.10847Z" stroke="#909FBA" stroke-width="1.5" stroke-miterlimit="10" stroke-linecap="round" stroke-linejoin="round"/>
</svg>
