<svg width="20" height="21" viewBox="0 0 20 21" fill="none" xmlns="http://www.w3.org/2000/svg">
<path d="M8.5 8.31742C8.5 8.77013 8.2 9.07193 7.75 9.07193H1.75C1.375 9.07193 1 8.77013 1 8.31742V2.28136C1 1.90411 1.375 1.52686 1.75 1.52686H7.75C8.2 1.52686 8.5 1.90411 8.5 2.28136V8.31742Z" stroke="#909FBA" stroke-width="1.5" stroke-miterlimit="10" stroke-linecap="round" stroke-linejoin="round"/>
<path d="M19 8.31742C19 8.77013 18.625 9.07193 18.25 9.07193H12.25C11.8 9.07193 11.5 8.77013 11.5 8.31742V2.28136C11.5 1.90411 11.8 1.52686 12.25 1.52686H18.25C18.625 1.52686 19 1.90411 19 2.28136V8.31742Z" stroke="#909FBA" stroke-width="1.5" stroke-miterlimit="10" stroke-linecap="round" stroke-linejoin="round"/>
<path d="M8.5 18.8804C8.5 19.2577 8.2 19.6349 7.75 19.6349H1.75C1.375 19.6349 1 19.2577 1 18.8804V12.8444C1 12.3916 1.375 12.0898 1.75 12.0898H7.75C8.2 12.0898 8.5 12.3916 8.5 12.8444V18.8804Z" stroke="#909FBA" stroke-width="1.5" stroke-miterlimit="10" stroke-linecap="round" stroke-linejoin="round"/>
<path d="M19 18.8804C19 19.2577 18.625 19.6349 18.25 19.6349H12.25C11.8 19.6349 11.5 19.2577 11.5 18.8804V12.8444C11.5 12.3916 11.8 12.0898 12.25 12.0898H18.25C18.625 12.0898 19 12.3916 19 12.8444V18.8804Z" stroke="#909FBA" stroke-width="1.5" stroke-miterlimit="10" stroke-linecap="round" stroke-linejoin="round"/>
</svg>
