<svg width="20" height="20" viewBox="0 0 20 20" fill="none" xmlns="http://www.w3.org/2000/svg">
<path d="M16.375 12.175C16.525 11.8 16.975 11.425 17.35 11.35L18.25 11.2C18.625 11.125 19 10.75 19 10.375V9.475C19 9.025 18.7 8.65 18.25 8.65L17.35 8.5C16.975 8.425 16.525 8.05 16.375 7.675L16.075 6.925C15.85 6.55 15.925 6.025 16.15 5.65L16.675 4.9C16.975 4.675 16.975 4.15 16.675 3.85L16.075 3.25C15.775 2.95 15.25 2.95 14.95 3.175L14.2 3.775C13.9 4 13.3 4.075 12.925 3.925C12.55 3.775 11.5 3.1 11.425 2.65L11.275 1.75C11.2 1.375 10.825 1 10.45 1H9.55C9.1 1 8.725 1.3 8.725 1.75L8.65 2.65C8.575 3.025 8.2 3.475 7.825 3.625L7.075 3.925C6.7 4.075 6.175 4.075 5.8 3.775L5.05 3.175C4.75 3.025 4.225 3.025 3.925 3.325L3.325 3.925C3.1 4.225 3.025 4.75 3.325 5.05L3.85 5.8C4.075 6.1 4.15 6.7 3.925 7.075L3.625 7.825C3.475 8.2 3.025 8.575 2.65 8.65H1.75C1.375 8.725 1 9.1 1 9.475V10.375C1 10.75 1.3 11.2 1.75 11.2L2.65 11.275C3.025 11.35 3.475 11.725 3.625 12.1L3.925 12.85C4.15 13.225 4.075 13.825 3.85 14.125L3.325 14.875C3.1 15.175 3.1 15.7 3.4 16L4 16.6C4.3 16.9 4.825 16.9 5.125 16.675L5.875 16.15C6.175 15.925 6.775 15.85 7.15 16.075C7.525 16.3 8.575 16.9 8.65 17.35L8.8 18.25C8.875 18.625 9.25 19 9.625 19H10.525C10.975 19 11.35 18.7 11.35 18.25L11.5 17.35C11.575 16.975 11.95 16.525 12.325 16.375L13 16.075C13.375 15.85 13.9 15.925 14.275 16.15L15.025 16.675C15.325 16.9 15.85 16.9 16.15 16.6L16.75 16C17.05 15.7 17.05 15.175 16.825 14.875L16.3 14.125C16.075 13.825 16 13.225 16.225 12.85C16.3 12.55 16.375 12.175 16.375 12.175Z" stroke="#6138E0" stroke-width="1.5" stroke-miterlimit="10" stroke-linecap="round"/>
<path d="M10.0752 13.375C11.9392 13.375 13.4502 11.864 13.4502 10C13.4502 8.13604 11.9392 6.625 10.0752 6.625C8.21123 6.625 6.7002 8.13604 6.7002 10C6.7002 11.864 8.21123 13.375 10.0752 13.375Z" stroke="#6138E0" stroke-width="1.5" stroke-miterlimit="10" stroke-linecap="round"/>
</svg>
