<svg width="49" height="49" viewBox="0 0 49 49" fill="none" xmlns="http://www.w3.org/2000/svg">
<path d="M33.8002 22.0506H33.0002V22.0006H24.0001V26.0006H29.6502C28.8502 28.3507 26.6001 30.0007 24.0001 30.0007C20.7001 30.0007 18 27.3006 18 24.0006C18 20.7006 20.7001 18.0005 24.0001 18.0005C25.5501 18.0005 26.9001 18.6005 28.0002 19.5006L30.8502 16.6505C29.0002 15.0505 26.6501 14.0005 24.0001 14.0005C18.5001 14.0005 14 18.5005 14 24.0006C14 29.5007 18.5001 34.0007 24.0001 34.0007C29.5002 34.0007 34.0002 29.5007 34.0002 24.0006C34.0002 23.3506 33.9502 22.7006 33.8002 22.0506Z" fill="#8191AB"/>
<path d="M15.15 19.3501L18.4501 21.7501C19.3501 19.5501 21.5001 18 24.0001 18C25.5501 18 26.9002 18.6001 28.0002 19.5001L30.8502 16.65C29.0002 15.05 26.6502 14 24.0001 14C20.1501 14 16.85 16.15 15.15 19.3501Z" fill="#8191AB"/>
<path d="M23.9998 34.0001C26.5998 34.0001 28.9499 33.0001 30.6999 31.4001L27.5998 28.8001C26.5998 29.5501 25.3498 30.0001 23.9998 30.0001C21.3998 30.0001 19.1997 28.3501 18.3497 26.05L15.0997 28.5501C16.7497 31.8001 20.0997 34.0001 23.9998 34.0001Z" fill="#8191AB"/>
<path d="M33.8001 22.05H33.0001V22H24V26H29.6501C29.2501 27.1001 28.5501 28.1001 27.6 28.8001L30.7001 31.4001C30.5001 31.6001 34.0001 29.0001 34.0001 24C34.0001 23.35 33.9501 22.7 33.8001 22.05Z" fill="#8191AB"/>
<circle cx="24.5" cy="24.5" r="24" stroke="#8191AB"/>
</svg>
